<?xml version="1.0" encoding="utf-8"?>
<!-- Svg Vector Icons : http://www.onlinewebfonts.com/icon -->
<!DOCTYPE svg PUBLIC "-//W3C//DTD SVG 1.1//EN" "http://www.w3.org/Graphics/SVG/1.1/DTD/svg11.dtd">
<svg version="1.1" xmlns="http://www.w3.org/2000/svg" xmlns:xlink="http://www.w3.org/1999/xlink" x="0px" y="0px" viewBox="0 0 1000 1000" enable-background="new 0 0 1000 1000" fill="#488ACB" xml:space="preserve">
<metadata> Svg Vector Icons : http://www.onlinewebfonts.com/icon </metadata>
<g><g><g><path d="M987.3,401.4c-6.2-54.6-153.1,0-153.1,0l-8.7,77.6c-3.2-1.8-6.5-3.6-9.9-5.1L778.5,312c-13.6-77.1-71.8-133.9-156.6-131H404c-1.3,9-3.4,17.8-6.1,26.4h238.7c49.5,0,94.9,31.9,107.3,84.4l39.9,159.9c-2.5-0.1-5-0.3-7.5-0.3H314.1l0.1,155.8h286.3v34.8H314.2l0,10.2h283.3v34.9H314.2l0.1,130.9H620V901c0,33.7,41.7,61.1,93.1,61.1c51.4,0,93-27.3,93-61.1v-92.5c43.9-16.6,74.5-52.9,74.5-95.1V565.1c0-32.8-18.5-62-47.2-81.2l153.9-8.3C987.3,475.6,993.4,455.9,987.3,401.4z M811,684.6H643v-79.9h168V684.6L811,684.6z"/><rect x="310" y="652.2" width="4.3" height="34.9"/><rect x="312.9" y="607.3" width="1.3" height="34.8"/><path d="M371,157.6c-0.1-67-36.6-125.3-90.8-156.4v144.5l-89.7,51.8l-89.8-52V1.1C46.5,32.3,10,90.6,10,157.6c0,70.2,40.3,131.1,99,161v0.8v594.3c0,23.5,9.5,44.8,24.9,60.3c15.4,15.4,36.7,24.8,60.3,24.9c46.9,0,85-38,85.1-85.2l-0.4-598.9C333.8,283.9,370.9,225,371,157.6z M212.9,951.4c-12.7,12.7-33.3,12.7-46.1,0c-12.6-12.6-12.6-33.2,0.1-45.9c12.8-12.7,33.3-12.7,45.9-0.1C225.6,918.1,225.6,938.7,212.9,951.4z"/></g><g></g><g></g><g></g><g></g><g></g><g></g><g></g><g></g><g></g><g></g><g></g><g></g><g></g><g></g><g></g></g><g></g><g></g><g></g><g></g><g></g><g></g><g></g><g></g><g></g><g></g><g></g><g></g><g></g><g></g><g></g></g>
</svg>